<svg xmlns="http://www.w3.org/2000/svg" xmlns:xlink="http://www.w3.org/1999/xlink" viewBox="0 0 1920 1080">
  <style>
    .st7{fill:#FCFCFC}
  </style>
  <path d="M250.72 11.73c10.86 177.47 40.93 353.76 89.49 524.8 1.13-7.34 2.26-14.68 3.38-22.02-3.77 27.03-7.55 54.06-11.32 81.1-2.85 20.41-5.7 41.02-4.1 61.56 1.11 14.27 4.37 28.34 4.83 42.65.46 14.4-1.93 28.71-4.11 42.95-6.56 42.93-11.22 86.15-13.97 129.49-4.9 77.23-3.71 154.71-2.53 232.09.15 9.53.6 19.91 6.82 27.13 6.49 7.53 17.3 9.34 27.2 10.23 64.71 5.83 129.45-6.77 194.19-12.26 67.37-5.72 135.4-3.71 202.31 5.96 6.78.98 14.16 1.94 20.1-1.48 7.56-4.35 9.9-14.01 11.17-22.64 21.88-148.01-56.91-297.62-32.98-445.32 7.2-44.47 23.65-87.67 24.14-132.71.26-23.45-3.84-46.96-1.3-70.28 3.87-35.56 22.98-68.84 22.18-104.6-.47-20.83-7.74-41.56-4.48-62.14 2.78-17.53 12.88-32.86 20.57-48.86 44.73-93.08 7.15-203.51 16.95-306.31.74-7.72.63-17.53-6.45-20.71-2.65-1.19-5.67-1.05-8.57-.88-159.69 9-319.37 18-479.06 27-18.35 1.03-37.37 2.25-53.6 10.86-16.22 8.61-22.61 25.76-20.86 54.39z" opacity=".2784" fill="#FFE0C9" id="Leg_background"/>
  <g id="Fibula">
    <defs>
      <path id="SVGID_1_" d="M397.22 678.23c-6.38-.94-11.85 5.63-12.29 12.07-.44 6.44 2.6 12.54 5.48 18.31 15.44 31 28.53 63.4 35.65 97.29 7.45 35.48 8.26 71.97 9.04 108.22 2.03 94.61 4.07 189.23 6.1 283.84 16.33-4.3 32.98-7.4 49.77-9.26-6.53-5.55-8.04-14.88-9.05-23.4-17.67-148.88-13.49-299.43-22.66-449.07-1.48-24.14-3.36-48.57-11.08-71.49-1.13-3.36-2.49-6.83-5.17-9.14-6.44-5.54-16.99-1.35-21.91 5.57-4.92 6.92-6.32 15.68-9.72 23.46-3.4 7.79-10.03 14.21-14.16 13.6z"/>
    </defs>
    <clipPath id="SVGID_2_">
      <use xlink:href="#SVGID_1_" overflow="visible"/>
    </clipPath>
  </g>
  <g id="ACL_and_PCL">
    <linearGradient id="SVGID_3_" gradientUnits="userSpaceOnUse" x1="511.8897" y1="487.9872" x2="584.1853" y2="576.9108">
      <stop offset="0" stop-color="#C3D7F1"/>
      <stop offset="1" stop-color="#926DAD"/>
    </linearGradient>
    <path d="M425.5 414.3c4.3 34.22 22.07 66 44.99 93.05s71.33 49.9 99.18 72.58c11.9 9.7 30.27.08 45.54-3.75 47.4-11.89-32.17-11-45.54-23.51-35.04-32.8-55.5-112.38-74.2-155.25 12.03 13.48-2.99 35.58-21.55 38.52-18.57 2.94-36.58-6.27-48.42-21.64z" fill="url(#SVGID_3_)"/>
    <linearGradient id="SVGID_4_" gradientUnits="userSpaceOnUse" x1="532.6976" y1="515.1355" x2="416.9699" y2="586.6526">
      <stop offset="0" stop-color="#C3D7F1"/>
      <stop offset=".003" stop-color="#C3D7F1"/>
      <stop offset=".6804" stop-color="#9E96B5"/>
      <stop offset="1" stop-color="#907D9E"/>
    </linearGradient>
    <path d="M590.54 408.49c17.56 41.93 7.37 93.93-28.29 124.26-12.94 11.01-28.49 18.94-43.87 26.76-20.82 10.59-41.63 21.17-62.45 31.76 9.82-1.1 19.66-2.07 29.51-2.91-.71 7.87 2.91 15.98 9.41 21.06 5.42-11.29 15.69-19.8 25.66-27.95 47.52-38.82 97.6-71.81 150.5-106.88 3.51-2.33 7.82-4.25 9.01-8.09.78-2.52.11-5.21-.18-7.82-.84-7.57 1.73-15.41 6.95-21.25-33.71-10.14-67.42-20.3-96.25-28.94z" fill="url(#SVGID_4_)"/>
  </g>
  <g id="Tibia">
    <radialGradient id="SVGID_5_" cx="566.8135" cy="703.9788" r="136.9859" gradientTransform="matrix(1 0 0 .5089 0 345.6953)" gradientUnits="userSpaceOnUse">
      <stop offset="0" stop-color="#FFE9BF"/>
      <stop offset=".3518" stop-color="#FFE7BF" stop-opacity=".7686"/>
      <stop offset=".7118" stop-color="#FFE6BD" stop-opacity=".6815"/>
      <stop offset=".8414" stop-color="#FFE2B6" stop-opacity=".6501"/>
      <stop offset=".9335" stop-color="#FFDBAB" stop-opacity=".6279"/>
      <stop offset="1" stop-color="#FFD29C" stop-opacity=".6118"/>
    </radialGradient>
    <path d="M425.47 590.09c-23.08 15.25-16.13 56.28-6.76 79.1 33.24 81.03 86.9 45.24 93.79 244.81 1.41 40.74-7.95 258.33 32.5 263.38 93.97 11.73 17.07-23.57 95.88-26.17 31.08-1.03 5.92-149.63 5.92-184.5 0-24.5-6.08-176.17 6.41-210.52 7.81-21.49 44.02-49.66 67.24-145.16 5.52-22.69-9.96-58.57-33.3-58.36-61.54.56-86.99 33.59-121.69 43.25h-.01c-67.89 26.92-76.13-32.83-139.98-5.83z" fill="url(#SVGID_5_)"/>
    <radialGradient id="SVGID_6_" cx="541.0959" cy="559.3193" r="184.4907" gradientTransform="matrix(1 0 0 .199 0 474.4838)" gradientUnits="userSpaceOnUse">
      <stop offset="0" stop-color="#BFF2EF"/>
      <stop offset=".305" stop-color="#BFEDEF"/>
      <stop offset=".6476" stop-color="#BFE0F0"/>
      <stop offset="1" stop-color="#BFCAF2"/>
    </radialGradient>
    <path d="M415.35 575.8c18.93-18.93 53.22-15.12 91.47-.24 62.36 24.27 42.47-17.2 166.98-30.95 10.39-1.15 21.92-2.01 30.3 4.25 5.95 4.45 14.21 18.26 13.17 25.62-1.23 8.73-12.11 15.61-20.78 13.98-49.94-9.39-72.18 19.43-94.42 7.47-20.01-10.76-37.72 45.77-93.67 21.14-12.09-5.32-37.99 7.25-57.29 12.29-39.53 10.33-60.98-28.33-35.76-53.56z" fill="url(#SVGID_6_)"/>
  </g>
  <g id="LCL_x2C__articular_cart.">
    <g id="Layer_7">
      <radialGradient id="SVGID_7_" cx="553.5356" cy="224.6927" r="258.5502" gradientUnits="userSpaceOnUse">
        <stop offset="0" stop-color="#FDC990"/>
        <stop offset="1" stop-color="#FFE0B3"/>
      </radialGradient>
      <path d="M460 287.69c-13.7 24.68-27.4 49.36-41.09 74.04-54.6 98.37-40.1 121.95-8.99 153.2 18.95 19.03 45.44 15.3 71.01 7.08 25.57-8.22 52.47-34.59 79.17-31.77 55.98 5.92 22.76 57.48 89.11 57.48 36.55 0 61.71-28.04 72.36-67.56 17.81-66.07-42.79-138.36-54.55-156.72-20.84-32.52-24.69-72.71-27.98-111.2-8.39-98.12-16.78-196.24-25.18-294.36-.3-3.57-.69-7.34-2.84-10.2-3.28-4.35-9.42-5.11-14.86-5.4-33.73-1.81-67.66.18-100.95 5.94-9.69 1.68-20.9 4.97-24.19 14.23-1.63 4.59-.84 9.64-.06 14.45C482.3 6.56 488.52 76.99 491.5 147.51c1.2 28.34 1.84 57.07-4.49 84.72s-20.38 54.54-27.01 55.46z" fill="url(#SVGID_7_)"/>
    </g>
    <radialGradient id="SVGID_8_" cx="548.0789" cy="380.3952" r="190.7427" gradientUnits="userSpaceOnUse">
      <stop offset="0" stop-color="#BFF2EF"/>
      <stop offset=".5201" stop-color="#BFF0EF"/>
      <stop offset=".7448" stop-color="#C0E9F0"/>
      <stop offset=".912" stop-color="#C2DCF1"/>
      <stop offset="1" stop-color="#C4D2F2"/>
    </radialGradient>
    <path d="M561.94 504.47c19.13-13.18 34.77 28.84 55.5 39.32 11.95 6.04 26.7 9.4 41.66 6 20.23-4.6 42.19-10.18 39.15-35.19-2.26-15.78-12.28-29.15-21.29-42.3a437.9861 437.9861 0 01-34.22-59.47c-4.36-9.17-8.48-18.84-8.44-28.99 2.83-22.62 5.69-46.93-25.22-40.38-36.27 18.83-65.22 6.06-93.34-22.68-24.84-28.37-53.26-24.13-58.78 15.35-6.28 40.23 7.69 71.35-13.1 106.36-6.85 11.54-34.99 44.61-33.93 57.98 1.7 21.39 9.64 33.58 23 34.82 20.05 1.85 66.9 11.96 129.01-30.82z" fill="url(#SVGID_8_)"/>
    <path class="st7" d="M398.24 449.13c25.02-25.02-2.07 28.77-4.76 39.69-3.19 12.96-9.57 41.65-3.4 62.39 4.57 15.36 1.01 39.56 3.75 55.65 9.45 55.48 30.7 119.34 17.43 86.99-11.8-28.76-30.13-1.64-26.4-13.76 11.51-37.37-23.53-53.88-19.17-153.69 1.99-45.57 7.9-77.94 39.07-132.29 6.57-11.45-11.92 60.42-6.52 55.02zM712.19 436.64c6.43-19.54 17.8-9.31 20.69 16.03 6.16 53.86 15.36 109.53-1.33 156.09-8.26 23.04-20.78 65.31-32.97 86.06-16.66 28.33-57.43 104.17-49.27 69.57 10.07-42.65-22.69-15.12-15.81-24.11 17.18-22.46 68.53-87.24 77.46-136.04 12-65.57 17.9-90.67-6.68-146.48-4.28-9.71-10.08-25.35-7.6-30.64 3.97-8.47 11.52 21.63 15.51 9.52z"/>
  </g>
  <g id="Quadriceps">
    <path d="M337.45-114.4c37.41 58.68 26.84 311.96 79.78 362.47 59.75 42.55 32.94 50.46 67.01 90.02 12.01 11.51 35.33-19.92 74.83 8.37 5.06 5.36 11.45 3.6 17.29.33 19.75-7.89 41.81 14.65 61.86 7.59-.28 2.89-.57 5.78-.85 8.67 9.99-7.05 13.25-21.17 23.55-27.78 8-5.13 18.62-4.61 26.72-9.58 36.55-41.13 68-94.61 73.57-149.21.86-48.93-4.69-217.87-6.48-266.76-348.58-22.23-420.44-29.09-417.28-24.12z" fill="#CF7A7A"/>
    <linearGradient id="SVGID_9_" gradientUnits="userSpaceOnUse" x1="569.8917" y1="174.4629" x2="563.1687" y2="362.0669">
      <stop offset="0" stop-color="#CF957A"/>
      <stop offset="1" stop-color="#FFF0AD"/>
    </linearGradient>
    <path d="M411.89 199.05c6.74 52.12 62.94 86.57 74.64 137.51-4.38-6.19 3.38-11.98 9.01-13.48l35.19-13.44c-4.95 9.75-10.01 20.96-6.19 31.21 8.02-8.07 13.33-21.5 24.47-25.3 4.49-.71 9.68 3.98 7.57 8.01 2.2-.67 4.39-1.34 6.59-2.01 11.9 9.05 11.59 26.73 10.14 41.61.35 5.53 8.51 7.15 13.09 4.04s6.75-8.64 9.87-13.22c3.12-4.58 8.71-8.67 13.86-6.63 5.9 2.34 9.88 11.86 15.49 8.9 4.66-4.19 5.41-2.21 10.25.03 2.68.57 5.01-1.81 6.68-3.98 21.96-28.35 39.49-62.66 71.4-79.02-5.89 1.53-11.79 3.05-17.68 4.58 3.2-3.5 6.4-7 9.6-10.51-5.15 2.78-10.3 5.57-15.46 8.35 15.3-28.16 32.42-55.34 51.21-81.3-21.98 13.48-37.33 35.26-52.04 56.44 1.58-11.18 6.39-21.89 13.7-30.51-3.27 5.07-6.55 10.13-9.82 15.2 1.86-11.35 8.73-21.37 10.83-32.68 4.35-47.57 20.59-93.29 20.71-141.76-14.94 39.05-31.41 77.51-49.36 115.26-3.65-3.37-5.33-8.74-4.26-13.59-2.41 8.39-7.49 15.99-14.31 21.43-1.75-11.19-8.84-21.43-18.71-26.99-4.45 4.93-12.39-1.31-8.65-6.8-7.76 4.16-18.24 2.34-24.14-4.2-9.01 4.59-20.37-.66-29.87 2.78-15.41 9.76-23.29 3.42-28.8-13.37-9.54-32.6-24.97-44.27-48.93-65.31-16.62-21.54-26.95-47.94-47.74-66.44 7.44 42.34 34.81 79.25 51.07 118.77-16.85-8.61-18.88-32.9-33.66-44.71 2.91 18.7 10.87 36.59 22.81 51.27-5.06-.89-10.4-.11-15.01 2.18-1.11 7.36 9.18 14.82 4.69 20.76-8.73 7.36-6.37 6.62.51 13.63 3.61 6.63-11.39 12.92-7.69 19.49 8.25 6.32 4.17 12.82-4.86 17.13 4.27 5.05-2.19 12.66-8.69 13.84-30.35 3.96-39.24-36.56-61.71-48.65 19.34 20.49 35.59 43.89 48.03 69.16-16.05-2.52-17.59-31.9-33.83-37.68z" opacity=".6" fill="url(#SVGID_9_)"/>
  </g>
  <g id="Patella">
    <linearGradient id="SVGID_10_" gradientUnits="userSpaceOnUse" x1="565.879" y1="279.6093" x2="555.1779" y2="497.751">
      <stop offset="0" stop-color="#BF9567"/>
      <stop offset=".0548" stop-color="#C09769"/>
      <stop offset=".0745" stop-color="#C59D70"/>
      <stop offset=".0886" stop-color="#CDA77B"/>
      <stop offset=".0999" stop-color="#D8B68C"/>
      <stop offset=".1047" stop-color="#DFBF96"/>
      <stop offset=".1942" stop-color="#E8CBA3"/>
      <stop offset=".3947" stop-color="#F9E0BC"/>
      <stop offset=".517" stop-color="#FFE8C5"/>
      <stop offset=".6113" stop-color="#FFE5C0"/>
      <stop offset=".7196" stop-color="#FDDBB2"/>
      <stop offset=".8347" stop-color="#FBCB9B"/>
      <stop offset=".9539" stop-color="#F8B57B"/>
      <stop offset="1" stop-color="#F7AB6D"/>
    </linearGradient>
    <path d="M497.06 316.32c-17.3 7.81-27.22 27.73-26.35 46.69.86 18.96 11.09 36.6 24.8 49.72 5.41 5.18 11.44 9.84 15.71 15.99 9.2 13.27 9.26 32.1 20.97 43.21 10.04 9.54 26.15 10.19 38.98 4.99 12.83-5.21 23.04-15.23 32.4-25.43 11.77-12.82 23.26-27.32 25.56-44.57.3-2.23.45-4.52 1.37-6.57 1.33-2.94 4.04-4.95 6.47-7.07 9.34-8.15 15.76-19.93 16.22-32.32.46-12.39-5.51-25.12-16.03-31.68-7.12-4.44-15.64-5.88-23.92-7.24-12.1-1.98-24.2-3.96-36.3-5.95-2.32-.38-4.72-.75-6.98-.12-1.43.4-2.73 1.19-4.17 1.56-2.04.52-4.19.15-6.27-.22-6.91-1.23-13.82-2.46-20.73-3.7-5.84-.5-11.67-.99-17.51-1.49l-10.99.12c.39 7.27-10.27 12.02-13.23 4.08z" fill="url(#SVGID_10_)"/>
    <path d="M520.26 724.13l13.52-28.29 3.58 15.12 3.13-11.01c4.25 8.39 6.74 17.67 7.28 27.06-1.32-10.52.75-21.45 5.83-30.76 3.78 5.22 5.93 11.61 6.09 18.06l1.34-11.6c4.37 9.79 4.96 20.47 6.63 30.94-1.07-10.17.33-20.58 4.03-30.12.52 6.48 1.05 12.96 1.57 19.44-.73-6.04.21-12.28 2.69-17.84l1.91 10.79c-.04-7.6 1-15.21 3.06-22.53-1.52 4.93.43 10.73 4.62 13.74-3.95-9.17 5.58-9 4.08-4.72 18-87.6 27.44-247.12 35.56-286.64.35-1.71-2.37-2.26-3.14-.69-15.74 31.93-44.55 52.07-84.44 45.85-16.07-2.51-18.93-30.23-25.93-52.26-1.26-3.95-3.39 9.85-7.53 10.08-4.41.24-2.77-13.68-7.15-13.22-2.54.27-.62 3.62-3.06 2.87-3.77-1.15-5.95-10.48-6.32-7.68-1.76 13.13 31.32 220.28 32.65 323.41z" opacity=".8118" fill="#FCFCFC"/>
    <path d="M524.08 161.91c1.78 46.7-7.26 93.78-26.22 136.49-7.36 16.58-16.16 36.07-7.05 51.75.48-6.93 1.1-14.25 5.13-19.92 4.03-5.66 12.74-8.59 18.09-4.16 1.37-5.97 12.04-5.74 13.16.28 4.57-6.3 16.57-3.46 17.84 4.21 2.39-1.51 4.79-3.02 7.18-4.52 1.26 2.41 4.13 3.86 6.81 3.45 1.86-4.55 5.47-8.36 9.92-10.44 1.47 6.79 4.15 13.31 7.86 19.17 3.23-3.13 6.47-6.26 9.7-9.39 5.68 2.75 11.97 4.23 18.28 4.3-.35-2.76-.71-5.52-1.06-8.27 1.64 6.3 5.1 12.11 9.87 16.55.44-2.46.89-4.92 1.33-7.38 2.75 1.17 5.5 2.35 8.25 3.52 5.33 6.45 7.86 15.13 6.84 23.43.52-4.63 2.19-9.13 4.81-12.99 1.15 6.98 2.29 13.95 3.44 20.93 8.46-39.92-15.02-78.93-22.61-119.03-10.28-54.26 51.12-347.9-18.69-374.54-205.53-78.43-73.58 268.2-72.88 286.56z" opacity=".8392" fill="#FFFFFF"/>
  </g>
</svg>
