<svg xmlns="http://www.w3.org/2000/svg" viewBox="0 0 574.3 1080">
  <path d="M.3 11.7c10.9 177.5 40.9 353.8 89.5 524.8 1.1-7.3 2.3-14.7 3.4-22-3.8 27-7.5 54.1-11.3 81.1-2.9 20.4-5.7 41-4.1 61.6 1.1 14.3 4.4 28.3 4.8 42.7.5 14.4-1.9 28.7-4.1 43-6.6 42.9-11.2 86.2-14 129.5-4.9 77.2-3.7 154.7-2.5 232.1.1 9.5.6 19.9 6.8 27.1 6.5 7.5 17.3 9.3 27.2 10.2 64.7 5.8 129.4-6.8 194.2-12.3 67.4-5.7 135.4-3.7 202.3 6 6.8 1 14.2 1.9 20.1-1.5 7.6-4.3 9.9-14 11.2-22.6 21.9-148-56.9-297.6-33-445.3 7.2-44.5 23.7-87.7 24.1-132.7.3-23.5-3.8-47-1.3-70.3 3.9-35.6 23-68.8 22.2-104.6-.5-20.8-7.7-41.6-4.5-62.1 2.8-17.5 12.9-32.9 20.6-48.9 44.7-93.1 7.2-203.5 17-306.3.7-7.7.6-17.5-6.5-20.7-2.7-1.2-5.7-1.1-8.6-.9l-479.1 27c-18.4 1-37.4 2.3-53.6 10.9C4.9-34.1-1.5-16.9.3 11.7z" opacity=".278" fill="#ffe0c9"/>
  <linearGradient id="a" gradientUnits="userSpaceOnUse" x1="261.457" y1="592.019" x2="333.753" y2="503.095" gradientTransform="matrix(1 0 0 -1 0 1080)">
    <stop offset="0" stop-color="#c3d7f1"/>
    <stop offset="1" stop-color="#926dad"/>
  </linearGradient>
  <path d="M175.1 414.3c4.3 34.2 22.1 66 45 93s71.3 49.9 99.2 72.6c11.9 9.7 30.3.1 45.5-3.8 47.4-11.9-32.2-11-45.5-23.5-35-32.8-55.5-112.4-74.2-155.3 12 13.5-3 35.6-21.5 38.5-18.7 3.1-36.7-6.1-48.5-21.5z" fill="url(#a)"/>
  <linearGradient id="b" gradientUnits="userSpaceOnUse" x1="282.257" y1="564.866" x2="166.529" y2="493.349" gradientTransform="matrix(1 0 0 -1 0 1080)">
    <stop offset="0" stop-color="#c3d7f1"/>
    <stop offset=".003" stop-color="#c3d7f1"/>
    <stop offset=".68" stop-color="#9e96b5"/>
    <stop offset="1" stop-color="#907d9e"/>
  </linearGradient>
  <path d="M340.1 408.5c17.6 41.9 7.4 93.9-28.3 124.3-12.9 11-28.5 18.9-43.9 26.8-20.8 10.6-41.6 21.2-62.5 31.8 9.8-1.1 19.7-2.1 29.5-2.9-.7 7.9 2.9 16 9.4 21.1 5.4-11.3 15.7-19.8 25.7-28 47.5-38.8 97.6-71.8 150.5-106.9 3.5-2.3 7.8-4.3 9-8.1.8-2.5.1-5.2-.2-7.8-.8-7.6 1.7-15.4 7-21.3-33.7-10.2-67.4-20.4-96.2-29z" fill="url(#b)"/>
  <radialGradient id="c" cx="316.374" cy="514.984" r="136.986" gradientTransform="matrix(1 0 0 -.5089 0 966.026)" gradientUnits="userSpaceOnUse">
    <stop offset="0" stop-color="#ffe9bf"/>
    <stop offset=".352" stop-color="#ffe7bf" stop-opacity=".769"/>
    <stop offset=".712" stop-color="#ffe6bd" stop-opacity=".681"/>
    <stop offset=".841" stop-color="#ffe2b6" stop-opacity=".65"/>
    <stop offset=".933" stop-color="#ffdbab" stop-opacity=".628"/>
    <stop offset="1" stop-color="#ffd29c" stop-opacity=".612"/>
  </radialGradient>
  <path d="M175 590.1c-23.1 15.3-16.1 56.3-6.8 79.1 33.2 81 86.9 45.2 93.8 244.8 1.4 40.7-8 258.3 32.5 263.4 94 11.7 17.1-23.6 95.9-26.2 31.1-1 5.9-149.6 5.9-184.5 0-24.5-6.1-176.2 6.4-210.5 7.8-21.5 44-49.7 67.2-145.2 5.5-22.7-10-58.6-33.3-58.4-61.5.6-87 33.6-121.7 43.3-67.8 26.9-76-32.8-139.9-5.8z" fill="url(#c)"/>
  <radialGradient id="d" cx="290.656" cy="1100.299" r="184.491" gradientTransform="matrix(1 0 0 -.199 0 804.748)" gradientUnits="userSpaceOnUse">
    <stop offset="0" stop-color="#bff2ef"/>
    <stop offset=".305" stop-color="#bfedef"/>
    <stop offset=".648" stop-color="#bfe0f0"/>
    <stop offset="1" stop-color="#bfcaf2"/>
  </radialGradient>
  <path d="M164.9 575.8c18.9-18.9 53.2-15.1 91.5-.2 62.4 24.3 42.5-17.2 167-31 10.4-1.2 21.9-2 30.3 4.3 6 4.5 14.2 18.3 13.2 25.6-1.2 8.7-12.1 15.6-20.8 14-49.9-9.4-72.2 19.4-94.4 7.5-20-10.8-37.7 45.8-93.7 21.1-12.1-5.3-38 7.3-57.3 12.3-39.6 10.3-61-28.4-35.8-53.6z" fill="url(#d)"/>
  <g>
    <radialGradient id="e" cx="303.092" cy="855.323" r="258.551" gradientTransform="matrix(1 0 0 -1 0 1080)" gradientUnits="userSpaceOnUse">
      <stop offset="0" stop-color="#fdc990"/>
      <stop offset="1" stop-color="#ffe0b3"/>
    </radialGradient>
    <path d="M209.6 287.7c-13.7 24.7-27.4 49.4-41.1 74-54.6 98.4-40.1 121.9-9 153.2 19 19 45.4 15.3 71 7.1s52.5-34.6 79.2-31.8c56 5.9 22.8 57.5 89.1 57.5 36.5 0 61.7-28 72.4-67.6 17.8-66.1-42.8-138.4-54.5-156.7-20.8-32.5-24.7-72.7-28-111.2-8.4-98.1-16.8-196.2-25.2-294.4-.3-3.6-.7-7.3-2.8-10.2-3.3-4.3-9.4-5.1-14.9-5.4-33.7-1.8-67.7.2-101 5.9-9.7 1.7-20.9 5-24.2 14.2-1.6 4.6-.8 9.6-.1 14.5C231.9 6.6 238.1 77 241.1 147.5c1.2 28.3 1.8 57.1-4.5 84.7s-20.4 54.6-27 55.5z" fill="url(#e)"/>
    <radialGradient id="f" cx="-250.44" cy="1080" r="0" gradientTransform="matrix(1 0 0 -1 0 1080)" gradientUnits="userSpaceOnUse">
      <stop offset="0" stop-color="#fdc990"/>
      <stop offset="1" stop-color="#ffe0b3"/>
    </radialGradient>
    <path d="M149.8 437.1c21-28.5-1.2 22.9-6.5 69.3-3.9 33.6 23.3 108.1 30.8 118.8 32.2 46.2 22.2 51.8 14.8 37.6-15.7-30-28.5 6.9-28.4-14.8.2-38.7-27-100.4-32.2-133.7-7-45.1 2.4-82 19-112 5.2-9.3-8.4 49.6 2.5 34.8zm312-.5c6.4-19.5 17.8-9.3 20.7 16 6.2 53.9 15.4 109.5-1.3 156.1-8.3 23-20.8 65.3-33 86.1-16.7 28.3-57.4 104.2-49.3 69.6 10.1-42.7-22.7-15.1-15.8-24.1 17.2-22.5 68.5-87.2 77.5-136 12-65.6 17.9-90.7-6.7-146.5-4.3-9.7-10.1-25.4-7.6-30.6 3.9-8.5 11.5 21.6 15.5 9.4z" fill="#fcfcfc"/>
  </g>
  <g>
    <path d="M87-114.4c37.4 58.7 26.8 312 79.8 362.5 59.8 42.5 32.9 50.5 67 90 12 11.5 35.3-19.9 74.8 8.4 5.1 5.4 11.5 3.6 17.3.3 19.8-7.9 41.8 14.6 61.9 7.6-.3 2.9-.6 5.8-.8 8.7 10-7 13.3-21.2 23.5-27.8 8-5.1 18.6-4.6 26.7-9.6 36.5-41.1 68-94.6 73.6-149.2.9-48.9-4.7-217.9-6.5-266.8C155.7-112.5 83.9-119.4 87-114.4z" fill="#cf7a7a"/>
    <linearGradient id="g" gradientUnits="userSpaceOnUse" x1="319.449" y1="905.537" x2="312.726" y2="717.933" gradientTransform="matrix(1 0 0 -1 0 1080)">
      <stop offset="0" stop-color="#cf957a"/>
      <stop offset="1" stop-color="#fff0ad"/>
    </linearGradient>
    <path d="M161.5 199.1c6.7 52.1 62.9 86.6 74.6 137.5-4.4-6.2 3.4-12 9-13.5l35.2-13.4c-5 9.8-10 21-6.2 31.2 8-8.1 13.3-21.5 24.5-25.3 4.5-.7 9.7 4 7.6 8 2.2-.7 4.4-1.3 6.6-2 11.9 9 11.6 26.7 10.1 41.6.3 5.5 8.5 7.1 13.1 4s6.8-8.6 9.9-13.2 8.7-8.7 13.9-6.6c5.9 2.3 9.9 11.9 15.5 8.9 4.7-4.2 5.4-2.2 10.3 0 2.7.6 5-1.8 6.7-4 22-28.4 39.5-62.7 71.4-79-5.9 1.5-11.8 3-17.7 4.6l9.6-10.5c-5.2 2.8-10.3 5.6-15.5 8.4 15.3-28.2 32.4-55.3 51.2-81.3-22 13.5-37.3 35.3-52 56.4 1.6-11.2 6.4-21.9 13.7-30.5-3.3 5.1-6.5 10.1-9.8 15.2 1.9-11.4 8.7-21.4 10.8-32.7 4.3-47.6 20.6-93.3 20.7-141.8-14.9 39.1-31.4 77.5-49.4 115.3-3.7-3.4-5.3-8.7-4.3-13.6-2.4 8.4-7.5 16-14.3 21.4-1.8-11.2-8.8-21.4-18.7-27-4.5 4.9-12.4-1.3-8.7-6.8-7.8 4.2-18.2 2.3-24.1-4.2-9 4.6-20.4-.7-29.9 2.8-15.4 9.8-23.3 3.4-28.8-13.4-9.5-32.6-25-44.3-48.9-65.3-16.6-21.5-27-47.9-47.7-66.4 7.4 42.3 34.8 79.3 51.1 118.8-17-8.7-19-33-33.8-44.8 2.9 18.7 10.9 36.6 22.8 51.3-5.1-.9-10.4-.1-15 2.2-1.1 7.4 9.2 14.8 4.7 20.8-8.7 7.4-6.4 6.6.5 13.6 3.6 6.6-11.4 12.9-7.7 19.5 8.3 6.3 4.2 12.8-4.9 17.1 4.3 5.1-2.2 12.7-8.7 13.8-30.4 4-39.2-36.6-61.7-48.6 19.3 20.5 35.6 43.9 48 69.2-16-2.6-17.5-32-33.7-37.7z" opacity=".6" fill="url(#g)"/>
  </g>
  <g>
    <linearGradient id="h" gradientUnits="userSpaceOnUse" x1="315.438" y1="800.391" x2="304.737" y2="582.249" gradientTransform="matrix(1 0 0 -1 0 1080)">
      <stop offset="0" stop-color="#bf9567"/>
      <stop offset=".055" stop-color="#c09769"/>
      <stop offset=".074" stop-color="#c59d70"/>
      <stop offset=".089" stop-color="#cda77b"/>
      <stop offset=".1" stop-color="#d8b68c"/>
      <stop offset=".105" stop-color="#dfbf96"/>
      <stop offset=".194" stop-color="#e8cba3"/>
      <stop offset=".395" stop-color="#f9e0bc"/>
      <stop offset=".517" stop-color="#ffe8c5"/>
      <stop offset=".611" stop-color="#ffe5c0"/>
      <stop offset=".72" stop-color="#fddbb2"/>
      <stop offset=".835" stop-color="#fbcb9b"/>
      <stop offset=".954" stop-color="#f8b57b"/>
      <stop offset="1" stop-color="#f7ab6d"/>
    </linearGradient>
    <path d="M246.6 316.3c-17.3 7.8-27.2 27.7-26.4 46.7.9 19 11.1 36.6 24.8 49.7 5.4 5.2 11.4 9.8 15.7 16 9.2 13.3 9.3 32.1 21 43.2 10 9.5 26.2 10.2 39 5 12.8-5.2 23-15.2 32.4-25.4 11.8-12.8 23.3-27.3 25.6-44.6.3-2.2.5-4.5 1.4-6.6 1.3-2.9 4-5 6.5-7.1 9.3-8.1 15.8-19.9 16.2-32.3.5-12.4-5.5-25.1-16-31.7-7.1-4.4-15.6-5.9-23.9-7.2l-36.3-6c-2.3-.4-4.7-.8-7-.1-1.4.4-2.7 1.2-4.2 1.6-2 .5-4.2.1-6.3-.2-6.9-1.2-13.8-2.5-20.7-3.7-5.8-.5-11.7-1-17.5-1.5l-11 .1c.3 7.3-10.3 12.1-13.3 4.1z" fill="url(#h)"/>
    <path d="M269.8 724.1l13.5-28.3 3.6 15.1 3.1-11c4.3 8.4 6.7 17.7 7.3 27.1-1.3-10.5.8-21.5 5.8-30.8 3.8 5.2 5.9 11.6 6.1 18.1l1.3-11.6c4.4 9.8 5 20.5 6.6 30.9-1.1-10.2.3-20.6 4-30.1.5 6.5 1 13 1.6 19.4-.7-6 .2-12.3 2.7-17.8l1.9 10.8c0-7.6 1-15.2 3.1-22.5-1.5 4.9.4 10.7 4.6 13.7-4-9.2 5.6-9 4.1-4.7 18-87.6 27.4-247.1 35.6-286.6.3-1.7-2.4-2.3-3.1-.7-15.7 31.9-44.5 52.1-84.4 45.9-16.1-2.5-18.9-30.2-25.9-52.3-1.3-4-3.4 9.9-7.5 10.1-4.4.2-2.8-13.7-7.1-13.2-2.5.3-.6 3.6-3.1 2.9-3.8-1.1-6-10.5-6.3-7.7-1.9 13 31.2 220.2 32.5 323.3z" opacity=".812" fill="#fcfcfc"/>
    <path d="M273.6 161.9c1.8 46.7-7.3 93.8-26.2 136.5-7.4 16.6-16.2 36.1-7 51.8.5-6.9 1.1-14.3 5.1-19.9 4-5.7 12.7-8.6 18.1-4.2 1.4-6 12-5.7 13.2.3 4.6-6.3 16.6-3.5 17.8 4.2l7.2-4.5c1.3 2.4 4.1 3.9 6.8 3.5 1.9-4.5 5.5-8.4 9.9-10.4 1.5 6.8 4.2 13.3 7.9 19.2l9.7-9.4c5.7 2.8 12 4.2 18.3 4.3-.3-2.8-.7-5.5-1.1-8.3 1.6 6.3 5.1 12.1 9.9 16.5.4-2.5.9-4.9 1.3-7.4 2.8 1.2 5.5 2.4 8.3 3.5 5.3 6.5 7.9 15.1 6.8 23.4.5-4.6 2.2-9.1 4.8-13 1.2 7 2.3 14 3.4 20.9 8.5-39.9-15-78.9-22.6-119-10.3-54.3 51.1-347.9-18.7-374.5-205.5-78.5-73.6 268.1-72.9 286.5z" opacity=".839" fill="#fff"/>
  </g>
</svg>
