<?xml version="1.0" encoding="utf-8"?>
<!-- Generator: Adobe Illustrator 25.0.0, SVG Export Plug-In . SVG Version: 6.00 Build 0)  -->
<svg version="1.1" id="Layer_1" xmlns="http://www.w3.org/2000/svg" xmlns:xlink="http://www.w3.org/1999/xlink" x="0px" y="0px"
	 viewBox="0 0 574.3 1080" style="enable-background:new 0 0 574.3 1080;" xml:space="preserve">
<style type="text/css">
	.st0{opacity:0.2784;fill:#FFE0C9;enable-background:new    ;}
	.st1{fill:url(#SVGID_1_);}
	.st2{fill:url(#SVGID_2_);}
	.st3{fill:url(#SVGID_3_);}
	.st4{fill:url(#SVGID_4_);}
	.st5{fill:url(#SVGID_5_);}
	.st6{fill:url(#SVGID_6_);}
	.st7{fill:#FCFCFC;}
	.st8{fill:#CF7A7A;}
	.st9{opacity:0.6;fill:url(#SVGID_7_);enable-background:new    ;}
	.st10{fill:url(#SVGID_8_);}
	.st11{opacity:0.8118;fill:#FCFCFC;enable-background:new    ;}
	.st12{opacity:0.8392;fill:#FFFFFF;enable-background:new    ;}
</style>
<path id="Leg_background" class="st0" d="M0.3,11.7c10.9,177.5,40.9,353.8,89.5,524.8c1.1-7.3,2.3-14.7,3.4-22
	c-3.8,27-7.5,54.1-11.3,81.1c-2.9,20.4-5.7,41-4.1,61.6c1.1,14.3,4.4,28.3,4.8,42.7c0.5,14.4-1.9,28.7-4.1,43
	c-6.6,42.9-11.2,86.2-14,129.5c-4.9,77.2-3.7,154.7-2.5,232.1c0.1,9.5,0.6,19.9,6.8,27.1c6.5,7.5,17.3,9.3,27.2,10.2
	c64.7,5.8,129.4-6.8,194.2-12.3c67.4-5.7,135.4-3.7,202.3,6c6.8,1,14.2,1.9,20.1-1.5c7.6-4.3,9.9-14,11.2-22.6
	c21.9-148-56.9-297.6-33-445.3c7.2-44.5,23.7-87.7,24.1-132.7c0.3-23.5-3.8-47-1.3-70.3c3.9-35.6,23-68.8,22.2-104.6
	c-0.5-20.8-7.7-41.6-4.5-62.1c2.8-17.5,12.9-32.9,20.6-48.9c44.7-93.1,7.2-203.5,17-306.3c0.7-7.7,0.6-17.5-6.5-20.7
	c-2.7-1.2-5.7-1.1-8.6-0.9c-159.7,9-319.4,18-479.1,27c-18.4,1-37.4,2.3-53.6,10.9C4.9-34.1-1.5-16.9,0.3,11.7L0.3,11.7z"/>
<g id="ACL_and_PCL">
	
		<linearGradient id="SVGID_1_" gradientUnits="userSpaceOnUse" x1="261.4573" y1="592.0189" x2="333.7529" y2="503.0952" gradientTransform="matrix(1 0 0 -1 0 1080)">
		<stop  offset="0" style="stop-color:#C3D7F1"/>
		<stop  offset="1" style="stop-color:#926DAD"/>
	</linearGradient>
	<path class="st1" d="M175.1,414.3c4.3,34.2,22.1,66,45,93s71.3,49.9,99.2,72.6c11.9,9.7,30.3,0.1,45.5-3.8
		c47.4-11.9-32.2-11-45.5-23.5c-35-32.8-55.5-112.4-74.2-155.3c12,13.5-3,35.6-21.5,38.5C204.9,438.9,186.9,429.7,175.1,414.3z"/>
	
		<linearGradient id="SVGID_2_" gradientUnits="userSpaceOnUse" x1="282.2567" y1="564.8661" x2="166.529" y2="493.3491" gradientTransform="matrix(1 0 0 -1 0 1080)">
		<stop  offset="0" style="stop-color:#C3D7F1"/>
		<stop  offset="3.000000e-03" style="stop-color:#C3D7F1"/>
		<stop  offset="0.6804" style="stop-color:#9E96B5"/>
		<stop  offset="1" style="stop-color:#907D9E"/>
	</linearGradient>
	<path class="st2" d="M340.1,408.5c17.6,41.9,7.4,93.9-28.3,124.3c-12.9,11-28.5,18.9-43.9,26.8c-20.8,10.6-41.6,21.2-62.5,31.8
		c9.8-1.1,19.7-2.1,29.5-2.9c-0.7,7.9,2.9,16,9.4,21.1c5.4-11.3,15.7-19.8,25.7-28c47.5-38.8,97.6-71.8,150.5-106.9
		c3.5-2.3,7.8-4.3,9-8.1c0.8-2.5,0.1-5.2-0.2-7.8c-0.8-7.6,1.7-15.4,7-21.3C402.6,427.3,368.9,417.1,340.1,408.5L340.1,408.5z"/>
</g>
<g id="Tibia">
	
		<radialGradient id="SVGID_3_" cx="316.3736" cy="514.9844" r="136.9859" gradientTransform="matrix(1 0 0 -0.5089 0 966.0257)" gradientUnits="userSpaceOnUse">
		<stop  offset="0" style="stop-color:#FFE9BF"/>
		<stop  offset="0.3518" style="stop-color:#FFE7BF;stop-opacity:0.7686"/>
		<stop  offset="0.7118" style="stop-color:#FFE6BD;stop-opacity:0.6815"/>
		<stop  offset="0.8414" style="stop-color:#FFE2B6;stop-opacity:0.6501"/>
		<stop  offset="0.9335" style="stop-color:#FFDBAB;stop-opacity:0.6279"/>
		<stop  offset="1" style="stop-color:#FFD29C;stop-opacity:0.6118"/>
	</radialGradient>
	<path class="st3" d="M175,590.1c-23.1,15.3-16.1,56.3-6.8,79.1c33.2,81,86.9,45.2,93.8,244.8c1.4,40.7-8,258.3,32.5,263.4
		c94,11.7,17.1-23.6,95.9-26.2c31.1-1,5.9-149.6,5.9-184.5c0-24.5-6.1-176.2,6.4-210.5c7.8-21.5,44-49.7,67.2-145.2
		c5.5-22.7-10-58.6-33.3-58.4c-61.5,0.6-87,33.6-121.7,43.3h0C247.1,622.8,238.9,563.1,175,590.1L175,590.1z"/>
	
		<radialGradient id="SVGID_4_" cx="290.656" cy="1100.2988" r="184.4907" gradientTransform="matrix(1 0 0 -0.199 0 804.7478)" gradientUnits="userSpaceOnUse">
		<stop  offset="0" style="stop-color:#BFF2EF"/>
		<stop  offset="0.305" style="stop-color:#BFEDEF"/>
		<stop  offset="0.6476" style="stop-color:#BFE0F0"/>
		<stop  offset="1" style="stop-color:#BFCAF2"/>
	</radialGradient>
	<path class="st4" d="M164.9,575.8c18.9-18.9,53.2-15.1,91.5-0.2c62.4,24.3,42.5-17.2,167-31c10.4-1.2,21.9-2,30.3,4.3
		c6,4.5,14.2,18.3,13.2,25.6c-1.2,8.7-12.1,15.6-20.8,14c-49.9-9.4-72.2,19.4-94.4,7.5c-20-10.8-37.7,45.8-93.7,21.1
		c-12.1-5.3-38,7.3-57.3,12.3C161.1,639.7,139.7,601,164.9,575.8L164.9,575.8z"/>
</g>
<g id="LCL_x2C__articular_cart.">
	<g id="Layer_7">
		
			<radialGradient id="SVGID_5_" cx="303.0916" cy="855.3235" r="258.5514" gradientTransform="matrix(1 0 0 -1 0 1080)" gradientUnits="userSpaceOnUse">
			<stop  offset="0" style="stop-color:#FDC990"/>
			<stop  offset="1" style="stop-color:#FFE0B3"/>
		</radialGradient>
		<path class="st5" d="M209.6,287.7c-13.7,24.7-27.4,49.4-41.1,74c-54.6,98.4-40.1,121.9-9,153.2c19,19,45.4,15.3,71,7.1
			s52.5-34.6,79.2-31.8c56,5.9,22.8,57.5,89.1,57.5c36.5,0,61.7-28,72.4-67.6c17.8-66.1-42.8-138.4-54.5-156.7
			c-20.8-32.5-24.7-72.7-28-111.2c-8.4-98.1-16.8-196.2-25.2-294.4c-0.3-3.6-0.7-7.3-2.8-10.2c-3.3-4.3-9.4-5.1-14.9-5.4
			c-33.7-1.8-67.7,0.2-101,5.9c-9.7,1.7-20.9,5-24.2,14.2c-1.6,4.6-0.8,9.6-0.1,14.5C231.9,6.6,238.1,77,241.1,147.5
			c1.2,28.3,1.8,57.1-4.5,84.7S216.2,286.8,209.6,287.7z"/>
	</g>
	
		<radialGradient id="SVGID_6_" cx="-250.4399" cy="1080" r="0" gradientTransform="matrix(1 0 0 -1 0 1080)" gradientUnits="userSpaceOnUse">
		<stop  offset="0" style="stop-color:#FDC990"/>
		<stop  offset="1" style="stop-color:#FFE0B3"/>
	</radialGradient>
	<path class="st6" d="M-250.4,0"/>
	<path class="st7" d="M147.8,449.1c25-25-2.1,28.8-4.8,39.7c-3.2,13-9.6,41.7-3.4,62.4c4.6,15.4,1,39.6,3.8,55.7
		c9.5,55.5,30.7,119.3,17.4,87c-11.8-28.8-30.1-1.6-26.4-13.8c11.5-37.4-23.5-53.9-19.2-153.7c2-45.6,7.9-77.9,39.1-132.3
		C160.9,382.7,142.4,454.5,147.8,449.1L147.8,449.1z M461.8,436.6c6.4-19.5,17.8-9.3,20.7,16c6.2,53.9,15.4,109.5-1.3,156.1
		c-8.3,23-20.8,65.3-33,86.1c-16.7,28.3-57.4,104.2-49.3,69.6c10.1-42.7-22.7-15.1-15.8-24.1c17.2-22.5,68.5-87.2,77.5-136
		c12-65.6,17.9-90.7-6.7-146.5c-4.3-9.7-10.1-25.4-7.6-30.6C450.2,418.7,457.8,448.8,461.8,436.6L461.8,436.6z"/>
</g>
<g id="Quadriceps">
	<path class="st8" d="M87-114.4c37.4,58.7,26.8,312,79.8,362.5c59.8,42.5,32.9,50.5,67,90c12,11.5,35.3-19.9,74.8,8.4
		c5.1,5.4,11.5,3.6,17.3,0.3c19.8-7.9,41.8,14.6,61.9,7.6c-0.3,2.9-0.6,5.8-0.8,8.7c10-7,13.3-21.2,23.5-27.8
		c8-5.1,18.6-4.6,26.7-9.6c36.5-41.1,68-94.6,73.6-149.2c0.9-48.9-4.7-217.9-6.5-266.8C155.7-112.5,83.9-119.4,87-114.4L87-114.4z"
		/>
	
		<linearGradient id="SVGID_7_" gradientUnits="userSpaceOnUse" x1="319.4489" y1="905.5372" x2="312.7259" y2="717.9332" gradientTransform="matrix(1 0 0 -1 0 1080)">
		<stop  offset="0" style="stop-color:#CF957A"/>
		<stop  offset="1" style="stop-color:#FFF0AD"/>
	</linearGradient>
	<path class="st9" d="M161.5,199.1c6.7,52.1,62.9,86.6,74.6,137.5c-4.4-6.2,3.4-12,9-13.5l35.2-13.4c-5,9.8-10,21-6.2,31.2
		c8-8.1,13.3-21.5,24.5-25.3c4.5-0.7,9.7,4,7.6,8c2.2-0.7,4.4-1.3,6.6-2c11.9,9,11.6,26.7,10.1,41.6c0.3,5.5,8.5,7.1,13.1,4
		s6.8-8.6,9.9-13.2s8.7-8.7,13.9-6.6c5.9,2.3,9.9,11.9,15.5,8.9c4.7-4.2,5.4-2.2,10.3,0c2.7,0.6,5-1.8,6.7-4
		c22-28.4,39.5-62.7,71.4-79c-5.9,1.5-11.8,3-17.7,4.6c3.2-3.5,6.4-7,9.6-10.5c-5.2,2.8-10.3,5.6-15.5,8.4
		c15.3-28.2,32.4-55.3,51.2-81.3c-22,13.5-37.3,35.3-52,56.4c1.6-11.2,6.4-21.9,13.7-30.5c-3.3,5.1-6.5,10.1-9.8,15.2
		c1.9-11.4,8.7-21.4,10.8-32.7c4.3-47.6,20.6-93.3,20.7-141.8c-14.9,39.1-31.4,77.5-49.4,115.3c-3.7-3.4-5.3-8.7-4.3-13.6
		c-2.4,8.4-7.5,16-14.3,21.4c-1.8-11.2-8.8-21.4-18.7-27c-4.5,4.9-12.4-1.3-8.7-6.8c-7.8,4.2-18.2,2.3-24.1-4.2
		c-9,4.6-20.4-0.7-29.9,2.8c-15.4,9.8-23.3,3.4-28.8-13.4c-9.5-32.6-25-44.3-48.9-65.3c-16.6-21.5-27-47.9-47.7-66.4
		c7.4,42.3,34.8,79.3,51.1,118.8C234,114,232,89.7,217.2,77.9c2.9,18.7,10.9,36.6,22.8,51.3c-5.1-0.9-10.4-0.1-15,2.2
		c-1.1,7.4,9.2,14.8,4.7,20.8c-8.7,7.4-6.4,6.6,0.5,13.6c3.6,6.6-11.4,12.9-7.7,19.5c8.3,6.3,4.2,12.8-4.9,17.1
		c4.3,5.1-2.2,12.7-8.7,13.8c-30.4,4-39.2-36.6-61.7-48.6c19.3,20.5,35.6,43.9,48,69.2C179.2,234.2,177.7,204.8,161.5,199.1
		L161.5,199.1z"/>
</g>
<g id="Patella">
	
		<linearGradient id="SVGID_8_" gradientUnits="userSpaceOnUse" x1="315.4385" y1="800.3907" x2="304.7374" y2="582.249" gradientTransform="matrix(1 0 0 -1 0 1080)">
		<stop  offset="0" style="stop-color:#BF9567"/>
		<stop  offset="5.480000e-02" style="stop-color:#C09769"/>
		<stop  offset="7.450000e-02" style="stop-color:#C59D70"/>
		<stop  offset="8.860001e-02" style="stop-color:#CDA77B"/>
		<stop  offset="9.990000e-02" style="stop-color:#D8B68C"/>
		<stop  offset="0.1047" style="stop-color:#DFBF96"/>
		<stop  offset="0.1942" style="stop-color:#E8CBA3"/>
		<stop  offset="0.3947" style="stop-color:#F9E0BC"/>
		<stop  offset="0.517" style="stop-color:#FFE8C5"/>
		<stop  offset="0.6113" style="stop-color:#FFE5C0"/>
		<stop  offset="0.7196" style="stop-color:#FDDBB2"/>
		<stop  offset="0.8347" style="stop-color:#FBCB9B"/>
		<stop  offset="0.9539" style="stop-color:#F8B57B"/>
		<stop  offset="1" style="stop-color:#F7AB6D"/>
	</linearGradient>
	<path class="st10" d="M246.6,316.3c-17.3,7.8-27.2,27.7-26.4,46.7c0.9,19,11.1,36.6,24.8,49.7c5.4,5.2,11.4,9.8,15.7,16
		c9.2,13.3,9.3,32.1,21,43.2c10,9.5,26.2,10.2,39,5c12.8-5.2,23-15.2,32.4-25.4c11.8-12.8,23.3-27.3,25.6-44.6
		c0.3-2.2,0.5-4.5,1.4-6.6c1.3-2.9,4-5,6.5-7.1c9.3-8.1,15.8-19.9,16.2-32.3c0.5-12.4-5.5-25.1-16-31.7c-7.1-4.4-15.6-5.9-23.9-7.2
		c-12.1-2-24.2-4-36.3-6c-2.3-0.4-4.7-0.8-7-0.1c-1.4,0.4-2.7,1.2-4.2,1.6c-2,0.5-4.2,0.1-6.3-0.2c-6.9-1.2-13.8-2.5-20.7-3.7
		c-5.8-0.5-11.7-1-17.5-1.5l-11,0.1C260.2,319.5,249.6,324.3,246.6,316.3L246.6,316.3z"/>
	<path class="st11" d="M269.8,724.1l13.5-28.3l3.6,15.1l3.1-11c4.3,8.4,6.7,17.7,7.3,27.1c-1.3-10.5,0.8-21.5,5.8-30.8
		c3.8,5.2,5.9,11.6,6.1,18.1l1.3-11.6c4.4,9.8,5,20.5,6.6,30.9c-1.1-10.2,0.3-20.6,4-30.1c0.5,6.5,1,13,1.6,19.4
		c-0.7-6,0.2-12.3,2.7-17.8l1.9,10.8c0-7.6,1-15.2,3.1-22.5c-1.5,4.9,0.4,10.7,4.6,13.7c-4-9.2,5.6-9,4.1-4.7
		c18-87.6,27.4-247.1,35.6-286.6c0.3-1.7-2.4-2.3-3.1-0.7c-15.7,31.9-44.5,52.1-84.4,45.9c-16.1-2.5-18.9-30.2-25.9-52.3
		c-1.3-4-3.4,9.9-7.5,10.1c-4.4,0.2-2.8-13.7-7.1-13.2c-2.5,0.3-0.6,3.6-3.1,2.9c-3.8-1.1-6-10.5-6.3-7.7
		C235.4,413.8,268.5,621,269.8,724.1L269.8,724.1z"/>
	<path class="st12" d="M273.6,161.9c1.8,46.7-7.3,93.8-26.2,136.5c-7.4,16.6-16.2,36.1-7,51.8c0.5-6.9,1.1-14.3,5.1-19.9
		c4-5.7,12.7-8.6,18.1-4.2c1.4-6,12-5.7,13.2,0.3c4.6-6.3,16.6-3.5,17.8,4.2c2.4-1.5,4.8-3,7.2-4.5c1.3,2.4,4.1,3.9,6.8,3.5
		c1.9-4.5,5.5-8.4,9.9-10.4c1.5,6.8,4.2,13.3,7.9,19.2c3.2-3.1,6.5-6.3,9.7-9.4c5.7,2.8,12,4.2,18.3,4.3c-0.3-2.8-0.7-5.5-1.1-8.3
		c1.6,6.3,5.1,12.1,9.9,16.5c0.4-2.5,0.9-4.9,1.3-7.4c2.8,1.2,5.5,2.4,8.3,3.5c5.3,6.5,7.9,15.1,6.8,23.4c0.5-4.6,2.2-9.1,4.8-13
		c1.2,7,2.3,14,3.4,20.9c8.5-39.9-15-78.9-22.6-119c-10.3-54.3,51.1-347.9-18.7-374.5C141-203.1,272.9,143.5,273.6,161.9
		L273.6,161.9z"/>
</g>
</svg>
